<svg width="148" height="133" viewBox="0 0 148 133" fill="none" xmlns="http://www.w3.org/2000/svg">
<path d="M61.9092 8.14258C67.4614 -0.186723 79.7007 -0.186723 85.2529 8.14258L99.2139 29.0859C101.805 32.9737 105.82 35.6882 110.394 36.6445L134.097 41.6016C144.887 43.8579 148.978 57.1069 141.338 65.0537L127.16 79.7998C123.557 83.5469 121.77 88.6802 122.268 93.8545L124.277 114.763C125.274 125.127 115.028 132.926 105.303 129.206L79.9463 119.508C75.8476 117.94 71.3145 117.94 67.2158 119.508L41.8594 129.206C32.1341 132.926 21.8886 125.127 22.8848 114.763L24.8945 93.8545C25.3919 88.6802 23.6047 83.5469 20.002 79.7998L5.82422 65.0537C-1.81623 57.1069 2.27474 43.8579 13.0654 41.6016L36.7686 36.6445C41.3419 35.6882 45.3568 32.9737 47.9482 29.0859L61.9092 8.14258Z" stroke="black" stroke-width="3.79119"/>
<path d="M45.906 72.138C50.0935 72.138 53.4882 69.1919 53.4883 65.5575C53.4883 65.4758 53.4851 65.3942 53.4817 65.3132H38.3303C38.3268 65.3942 38.3236 65.4758 38.3236 65.5575C38.3238 69.1919 41.7184 72.138 45.906 72.138Z" fill="black"/>
<path d="M30.7412 63.4176C30.7412 62.3707 31.5899 61.522 32.6368 61.522H59.9334C60.9803 61.522 61.829 62.3707 61.829 63.4176C61.829 64.4645 60.9803 65.3132 59.9334 65.3132H32.6368C31.5899 65.3132 30.7412 64.4645 30.7412 63.4176Z" fill="black"/>
<path d="M99.7409 72.138C103.928 72.138 107.323 69.1919 107.323 65.5575C107.323 65.4758 107.32 65.3942 107.317 65.3132H92.1652C92.1618 65.3942 92.1586 65.4758 92.1586 65.5575C92.1587 69.1919 95.5534 72.138 99.7409 72.138Z" fill="black"/>
<path d="M84.5762 63.4176C84.5762 62.3707 85.4249 61.522 86.4718 61.522H113.768C114.815 61.522 115.664 62.3707 115.664 63.4176C115.664 64.4645 114.815 65.3132 113.768 65.3132H86.4718C85.4249 65.3132 84.5762 64.4645 84.5762 63.4176Z" fill="black"/>
<path d="M79.2685 75.9285C79.2685 78.0223 76.5527 79.7197 73.2026 79.7197C69.8525 79.7197 67.1367 78.0223 67.1367 75.9285C67.1367 73.8347 69.8525 72.1373 73.2026 72.1373C76.5527 72.1373 79.2685 73.8347 79.2685 75.9285Z" fill="black"/>
<path d="M81.0701 91.5453C81.6626 92.1377 81.6676 93.1071 81.0059 93.621C78.8889 95.2653 76.2733 96.1713 73.5643 96.1713C70.8554 96.1713 68.2398 95.2653 66.1228 93.621C65.4611 93.1071 65.4661 92.1377 66.0586 91.5453C66.651 90.9528 67.6057 90.9653 68.2883 91.4512C69.8189 92.5407 71.6609 93.1372 73.5643 93.1372C75.4678 93.1372 77.3098 92.5407 78.8404 91.4512C79.523 90.9653 80.4777 90.9528 81.0701 91.5453Z" fill="black"/>
</svg>
